<svg id="visual" viewBox="0 0 900 600" width="900" height="600" xmlns="http://www.w3.org/2000/svg" xmlns:xlink="http://www.w3.org/1999/xlink" version="1.1"><rect x="0" y="0" width="900" height="600" fill="#45365C"></rect><g transform="translate(949.0223577841934 86.90772474546529)"><path d="M229.5 -299.8C314.3 -202.3 411.7 -146 437.5 -67.2C463.3 11.6 417.4 113.1 359.6 202.3C301.7 291.5 231.9 368.4 148.9 390.8C65.8 413.2 -30.6 380.9 -118.1 341.6C-205.5 302.3 -284.2 255.9 -368.4 179.2C-452.7 102.5 -542.5 -4.5 -542.9 -112.1C-543.4 -219.6 -454.6 -327.7 -349.2 -421.7C-243.8 -515.6 -121.9 -595.3 -24.8 -565.7C72.3 -536.2 144.6 -397.4 229.5 -299.8" fill="#BB004B"></path></g></svg>