<svg id="visual" viewBox="0 0 900 600" width="900" height="600" xmlns="http://www.w3.org/2000/svg" xmlns:xlink="http://www.w3.org/1999/xlink" version="1.1"><rect x="0" y="0" width="900" height="600" fill="#715DF2"></rect><path d="M0 306L100 370L200 376L300 351L400 369L500 389L600 363L700 359L800 383L900 377L900 601L800 601L700 601L600 601L500 601L400 601L300 601L200 601L100 601L0 601Z" fill="#4f3fb7"></path><path d="M0 424L100 341L200 338L300 414L400 400L500 392L600 381L700 425L800 423L900 392L900 601L800 601L700 601L600 601L500 601L400 601L300 601L200 601L100 601L0 601Z" fill="#812994"></path><path d="M0 388L100 387L200 394L300 456L400 432L500 421L600 436L700 413L800 452L900 435L900 601L800 601L700 601L600 601L500 601L400 601L300 601L200 601L100 601L0 601Z" fill="#941771"></path><path d="M0 492L100 496L200 484L300 453L400 437L500 489L600 482L700 489L800 479L900 431L900 601L800 601L700 601L600 601L500 601L400 601L300 601L200 601L100 601L0 601Z" fill="#971952"></path><path d="M0 483L100 526L200 511L300 530L400 491L500 509L600 480L700 537L800 532L900 527L900 601L800 601L700 601L600 601L500 601L400 601L300 601L200 601L100 601L0 601Z" fill="#8f2739"></path><path d="M0 555L100 537L200 555L300 564L400 533L500 572L600 573L700 564L800 534L900 559L900 601L800 601L700 601L600 601L500 601L400 601L300 601L200 601L100 601L0 601Z" fill="#813528"></path></svg>