<svg id="visual" viewBox="0 0 960 540" width="960" height="540" xmlns="http://www.w3.org/2000/svg" xmlns:xlink="http://www.w3.org/1999/xlink" version="1.1"><path d="M0 131L320 109L640 147L960 131L960 0L640 0L320 0L0 0Z" fill="#7972a3"></path><path d="M0 239L320 228L640 201L960 222L960 129L640 145L320 107L0 129Z" fill="#6d669a"></path><path d="M0 309L320 266L640 255L960 282L960 220L640 199L320 226L0 237Z" fill="#615a91"></path><path d="M0 330L320 298L640 298L960 325L960 280L640 253L320 264L0 307Z" fill="#564e88"></path><path d="M0 395L320 320L640 347L960 363L960 323L640 296L320 296L0 328Z" fill="#4d457e"></path><path d="M0 460L320 433L640 433L960 438L960 361L640 345L320 318L0 393Z" fill="#464074"></path><path d="M0 487L320 465L640 465L960 471L960 436L640 431L320 431L0 458Z" fill="#403a6a"></path><path d="M0 541L320 541L640 541L960 541L960 469L640 463L320 463L0 485Z" fill="#3a3560"></path></svg>